<mxfile host="65bd71144e" scale="2" border="50">
    <diagram id="MReUjaNDudYp6e8Bdq2W" name="Page-1">
        <mxGraphModel dx="1411" dy="796" grid="1" gridSize="10" guides="1" tooltips="1" connect="1" arrows="1" fold="1" page="1" pageScale="1" pageWidth="850" pageHeight="1100" background="#FFFFFF" math="0" shadow="0">
            <root>
                <mxCell id="0"/>
                <mxCell id="1" parent="0"/>
                <mxCell id="21" value="&lt;span style=&quot;font-size: 18px;&quot;&gt;&lt;b&gt;二叉树退化为链表&lt;/b&gt;&lt;/span&gt;" style="text;html=1;align=center;verticalAlign=middle;whiteSpace=wrap;rounded=0;" parent="1" vertex="1">
                    <mxGeometry x="340" y="20" width="150" height="50" as="geometry"/>
                </mxCell>
                <mxCell id="22" style="edgeStyle=none;html=1;exitX=0;exitY=0.5;exitDx=0;exitDy=0;entryX=1;entryY=0;entryDx=0;entryDy=0;endArrow=none;endFill=0;" edge="1" parent="1" source="24" target="27">
                    <mxGeometry relative="1" as="geometry"/>
                </mxCell>
                <mxCell id="23" style="edgeStyle=none;html=1;exitX=1;exitY=0.5;exitDx=0;exitDy=0;entryX=0;entryY=0;entryDx=0;entryDy=0;endArrow=none;endFill=0;" edge="1" parent="1" source="24" target="32">
                    <mxGeometry relative="1" as="geometry"/>
                </mxCell>
                <mxCell id="24" value="&lt;font style=&quot;color: rgb(0, 0, 0); font-size: 18px;&quot;&gt;1&lt;/font&gt;" style="ellipse;whiteSpace=wrap;html=1;aspect=fixed;fillColor=#66B2FF;" vertex="1" parent="1">
                    <mxGeometry x="160" y="120" width="40" height="40" as="geometry"/>
                </mxCell>
                <mxCell id="25" style="edgeStyle=none;html=1;exitX=1;exitY=0.5;exitDx=0;exitDy=0;entryX=0.5;entryY=0;entryDx=0;entryDy=0;endArrow=none;endFill=0;" edge="1" parent="1" source="27" target="28">
                    <mxGeometry relative="1" as="geometry"/>
                </mxCell>
                <mxCell id="26" style="edgeStyle=none;html=1;exitX=0;exitY=0.5;exitDx=0;exitDy=0;entryX=0.5;entryY=0;entryDx=0;entryDy=0;endArrow=none;endFill=0;" edge="1" parent="1" source="27" target="29">
                    <mxGeometry relative="1" as="geometry"/>
                </mxCell>
                <mxCell id="27" value="&lt;font style=&quot;color: rgb(0, 0, 0); font-size: 18px;&quot;&gt;2&lt;/font&gt;" style="ellipse;whiteSpace=wrap;html=1;aspect=fixed;fillColor=#66B2FF;" vertex="1" parent="1">
                    <mxGeometry x="80" y="200" width="40" height="40" as="geometry"/>
                </mxCell>
                <mxCell id="28" value="&lt;font style=&quot;color: rgb(0, 0, 0); font-size: 18px;&quot;&gt;5&lt;/font&gt;" style="ellipse;whiteSpace=wrap;html=1;aspect=fixed;fillColor=#66B2FF;" vertex="1" parent="1">
                    <mxGeometry x="120" y="280" width="40" height="40" as="geometry"/>
                </mxCell>
                <mxCell id="29" value="&lt;font style=&quot;color: rgb(0, 0, 0); font-size: 18px;&quot;&gt;4&lt;/font&gt;" style="ellipse;whiteSpace=wrap;html=1;aspect=fixed;fillColor=#66B2FF;" vertex="1" parent="1">
                    <mxGeometry x="40" y="280" width="40" height="40" as="geometry"/>
                </mxCell>
                <mxCell id="30" style="edgeStyle=none;html=1;exitX=1;exitY=0.5;exitDx=0;exitDy=0;entryX=0.5;entryY=0;entryDx=0;entryDy=0;endArrow=none;endFill=0;" edge="1" parent="1" source="32" target="35">
                    <mxGeometry relative="1" as="geometry"/>
                </mxCell>
                <mxCell id="31" style="edgeStyle=none;html=1;exitX=0;exitY=0.5;exitDx=0;exitDy=0;entryX=0.5;entryY=0;entryDx=0;entryDy=0;endArrow=none;endFill=0;" edge="1" parent="1" source="32" target="36">
                    <mxGeometry relative="1" as="geometry"/>
                </mxCell>
                <mxCell id="32" value="&lt;font style=&quot;color: rgb(0, 0, 0); font-size: 18px;&quot;&gt;3&lt;/font&gt;" style="ellipse;whiteSpace=wrap;html=1;aspect=fixed;fillColor=#66B2FF;" vertex="1" parent="1">
                    <mxGeometry x="240" y="200" width="40" height="40" as="geometry"/>
                </mxCell>
                <mxCell id="35" value="&lt;font style=&quot;color: rgb(0, 0, 0); font-size: 18px;&quot;&gt;7&lt;/font&gt;" style="ellipse;whiteSpace=wrap;html=1;aspect=fixed;fillColor=#66B2FF;" vertex="1" parent="1">
                    <mxGeometry x="280" y="280" width="40" height="40" as="geometry"/>
                </mxCell>
                <mxCell id="36" value="&lt;font style=&quot;color: rgb(0, 0, 0); font-size: 18px;&quot;&gt;6&lt;/font&gt;" style="ellipse;whiteSpace=wrap;html=1;aspect=fixed;fillColor=#66B2FF;" vertex="1" parent="1">
                    <mxGeometry x="200" y="280" width="40" height="40" as="geometry"/>
                </mxCell>
                <mxCell id="44" style="edgeStyle=none;html=1;exitX=0;exitY=1;exitDx=0;exitDy=0;" edge="1" parent="1" source="37" target="38">
                    <mxGeometry relative="1" as="geometry"/>
                </mxCell>
                <mxCell id="37" value="&lt;font style=&quot;color: rgb(0, 0, 0); font-size: 18px;&quot;&gt;1&lt;/font&gt;" style="ellipse;whiteSpace=wrap;html=1;aspect=fixed;fillColor=#66B2FF;" vertex="1" parent="1">
                    <mxGeometry x="760" y="80" width="40" height="40" as="geometry"/>
                </mxCell>
                <mxCell id="45" style="edgeStyle=none;html=1;exitX=0;exitY=1;exitDx=0;exitDy=0;entryX=1;entryY=0;entryDx=0;entryDy=0;" edge="1" parent="1" source="38" target="39">
                    <mxGeometry relative="1" as="geometry"/>
                </mxCell>
                <mxCell id="38" value="&lt;font style=&quot;color: rgb(0, 0, 0); font-size: 18px;&quot;&gt;2&lt;/font&gt;" style="ellipse;whiteSpace=wrap;html=1;aspect=fixed;fillColor=#66B2FF;" vertex="1" parent="1">
                    <mxGeometry x="680" y="160" width="40" height="40" as="geometry"/>
                </mxCell>
                <mxCell id="46" style="edgeStyle=none;html=1;exitX=0;exitY=1;exitDx=0;exitDy=0;entryX=1;entryY=0;entryDx=0;entryDy=0;" edge="1" parent="1" source="39" target="41">
                    <mxGeometry relative="1" as="geometry"/>
                </mxCell>
                <mxCell id="39" value="&lt;font style=&quot;color: rgb(0, 0, 0); font-size: 18px;&quot;&gt;3&lt;/font&gt;" style="ellipse;whiteSpace=wrap;html=1;aspect=fixed;fillColor=#66B2FF;" vertex="1" parent="1">
                    <mxGeometry x="600" y="240" width="40" height="40" as="geometry"/>
                </mxCell>
                <mxCell id="48" style="edgeStyle=none;html=1;exitX=0;exitY=1;exitDx=0;exitDy=0;entryX=1;entryY=0;entryDx=0;entryDy=0;" edge="1" parent="1" source="40" target="42">
                    <mxGeometry relative="1" as="geometry"/>
                </mxCell>
                <mxCell id="40" value="&lt;font style=&quot;color: rgb(0, 0, 0); font-size: 18px;&quot;&gt;5&lt;/font&gt;" style="ellipse;whiteSpace=wrap;html=1;aspect=fixed;fillColor=#66B2FF;" vertex="1" parent="1">
                    <mxGeometry x="440" y="400" width="40" height="40" as="geometry"/>
                </mxCell>
                <mxCell id="47" style="edgeStyle=none;html=1;exitX=0;exitY=1;exitDx=0;exitDy=0;entryX=1;entryY=0;entryDx=0;entryDy=0;" edge="1" parent="1" source="41" target="40">
                    <mxGeometry relative="1" as="geometry"/>
                </mxCell>
                <mxCell id="41" value="&lt;font style=&quot;color: rgb(0, 0, 0); font-size: 18px;&quot;&gt;4&lt;/font&gt;" style="ellipse;whiteSpace=wrap;html=1;aspect=fixed;fillColor=#66B2FF;" vertex="1" parent="1">
                    <mxGeometry x="520" y="320" width="40" height="40" as="geometry"/>
                </mxCell>
                <mxCell id="49" style="edgeStyle=none;html=1;exitX=0;exitY=1;exitDx=0;exitDy=0;entryX=1;entryY=0;entryDx=0;entryDy=0;" edge="1" parent="1" source="42" target="43">
                    <mxGeometry relative="1" as="geometry"/>
                </mxCell>
                <mxCell id="42" value="&lt;font style=&quot;color: rgb(0, 0, 0); font-size: 18px;&quot;&gt;6&lt;/font&gt;" style="ellipse;whiteSpace=wrap;html=1;aspect=fixed;fillColor=#66B2FF;" vertex="1" parent="1">
                    <mxGeometry x="360" y="480" width="40" height="40" as="geometry"/>
                </mxCell>
                <mxCell id="43" value="&lt;font style=&quot;color: rgb(0, 0, 0); font-size: 18px;&quot;&gt;7&lt;/font&gt;" style="ellipse;whiteSpace=wrap;html=1;aspect=fixed;fillColor=#66B2FF;" vertex="1" parent="1">
                    <mxGeometry x="280" y="560" width="40" height="40" as="geometry"/>
                </mxCell>
                <mxCell id="50" value="&lt;span style=&quot;font-size: 18px;&quot;&gt;完美二叉树&lt;/span&gt;" style="text;html=1;align=center;verticalAlign=middle;whiteSpace=wrap;rounded=0;" vertex="1" parent="1">
                    <mxGeometry x="120" y="60" width="150" height="50" as="geometry"/>
                </mxCell>
                <mxCell id="51" value="&lt;span style=&quot;font-size: 18px;&quot;&gt;退化为链表&lt;/span&gt;" style="text;html=1;align=center;verticalAlign=middle;whiteSpace=wrap;rounded=0;" vertex="1" parent="1">
                    <mxGeometry x="610" y="60" width="150" height="50" as="geometry"/>
                </mxCell>
            </root>
        </mxGraphModel>
    </diagram>
</mxfile>